<svg viewBox="0 0 252 160" xmlns="http://www.w3.org/2000/svg"><g opacity=".5"><path opacity=".5" d="M193.639 61.054h-80.48a.658.658 0 01-.6-.4l-2.132-4.866a2.194 2.194 0 00-2.032-1.333H87.742c-.866 0-1.666.534-2.032 1.333l-2.099 4.866c-.1.233-.333.4-.6.4H57.197a.668.668 0 01-.667-.667c0-.366.3-.666.666-.666H82.58l1.932-4.466a3.527 3.527 0 013.231-2.133h20.653c1.399 0 2.665.833 3.231 2.133l1.932 4.466h80.047c.367 0 .667.3.667.666 0 .367-.267.667-.633.667z" fill="#AFAAE5"/><path opacity=".5" d="M138.375 61.054c-.266 0-.499-.133-.599-.4l-2.132-4.866a2.194 2.194 0 00-2.032-1.333h-14.924c-.866 0-1.665.534-2.032 1.333l-2.132 4.866c-.133.333-.533.5-.866.333a.635.635 0 01-.333-.866l2.132-4.866a3.526 3.526 0 013.231-2.133h14.924c1.399 0 2.665.833 3.231 2.133l2.132 4.866c.133.333 0 .733-.333.866-.1.067-.2.067-.267.067z" fill="#AFAAE5"/><path opacity=".5" d="M138.375 61.054c-.1 0-.166-.033-.266-.067a.634.634 0 01-.333-.866l2.131-4.866a3.529 3.529 0 013.232-2.133h14.923c1.399 0 2.665.833 3.231 2.133l2.132 4.866c.133.333 0 .733-.333.866s-.733 0-.866-.333l-2.132-4.866a2.193 2.193 0 00-2.032-1.333h-14.923c-.866 0-1.666.534-2.032 1.333l-2.132 4.866c-.1.267-.367.4-.6.4zM62.759 55.788a2.673 2.673 0 01-2.665-2.666c0-1.466 1.199-2.666 2.665-2.666 1.465 0 2.665 1.2 2.665 2.666 0 1.5-1.2 2.666-2.665 2.666zm0-3.965c-.733 0-1.333.6-1.333 1.333s.6 1.333 1.333 1.333 1.332-.6 1.332-1.333c0-.734-.6-1.334-1.332-1.334zM70.42 55.788a2.673 2.673 0 01-2.665-2.666c0-1.466 1.2-2.666 2.665-2.666 1.466 0 2.665 1.2 2.665 2.666 0 1.5-1.2 2.666-2.665 2.666zm0-3.965c-.733 0-1.332.6-1.332 1.333s.6 1.333 1.332 1.333c.733 0 1.332-.6 1.332-1.333 0-.734-.6-1.334-1.332-1.334zM78.082 55.788a2.673 2.673 0 01-2.665-2.666c0-1.466 1.199-2.666 2.665-2.666 1.465 0 2.665 1.2 2.665 2.666-.034 1.5-1.233 2.666-2.665 2.666zm0-3.965c-.733 0-1.333.6-1.333 1.333s.6 1.333 1.333 1.333 1.332-.6 1.332-1.333c0-.734-.633-1.334-1.332-1.334zM188.442 73.785h-100.3a3.797 3.797 0 01-3.798-3.8c0-2.1 1.7-3.799 3.798-3.799h100.3c2.099 0 3.798 1.7 3.798 3.8.033 2.099-1.699 3.799-3.798 3.799zm-100.3-6.266a2.46 2.46 0 00-2.465 2.466 2.46 2.46 0 002.465 2.466h100.3a2.46 2.46 0 002.465-2.466 2.46 2.46 0 00-2.465-2.466h-100.3zM78.049 70.652h-5.697a.668.668 0 01-.666-.667c0-.366.3-.666.666-.666h5.697c.366 0 .666.3.666.666 0 .367-.3.667-.666.667z" fill="#AFAAE5"/><path opacity=".5" d="M75.716 72.985a.657.657 0 01-.466-.2.644.644 0 010-.933l1.866-1.867-1.866-1.866a.644.644 0 010-.933.644.644 0 01.933 0l2.332 2.333a.645.645 0 010 .933l-2.332 2.333c-.133.133-.3.2-.467.2zM66.523 70.652h-5.696a.668.668 0 01-.667-.667c0-.366.3-.666.667-.666h5.696c.366 0 .666.3.666.666 0 .367-.3.667-.666.667z" fill="#AFAAE5"/><path opacity=".5" d="M63.158 72.985a.657.657 0 01-.466-.2l-2.332-2.333a.658.658 0 01-.2-.467c0-.166.067-.333.2-.466l2.332-2.333a.644.644 0 01.933 0 .644.644 0 010 .933l-1.866 1.866 1.866 1.867a.644.644 0 010 .933c-.133.133-.3.2-.467.2zM89.84 60.42h-1.099c-.7 0-1.265-.566-1.265-1.266v-1.1c0-.7.566-1.266 1.265-1.266h1.1c.7 0 1.266.567 1.266 1.267v1.1c0 .733-.567 1.266-1.266 1.266zm-.999-1.332h.933v-.934h-.933v.934zM99.7 59.321h-6.562a.668.668 0 01-.666-.667c0-.366.3-.666.666-.666h6.563c.366 0 .666.3.666.666 0 .367-.3.667-.666.667z" fill="#AFAAE5"/></g><path d="M167.256 46.457H84.977a.668.668 0 01-.666-.667c0-.366.3-.666.666-.666h82.279c.366 0 .666.3.666.666 0 .367-.3.667-.666.667zM196.037 123.341a.669.669 0 01-.666-.667V50.356a3.94 3.94 0 00-3.931-3.932h-6.063a.668.668 0 01-.666-.667c0-.366.3-.666.666-.666h6.063a5.275 5.275 0 015.263 5.265v72.318c0 .367-.3.667-.666.667zM191.44 160H59.56a5.276 5.276 0 01-5.263-5.266v-1.633c0-.366.3-.666.667-.666.366 0 .666.3.666.666v1.633a3.939 3.939 0 003.93 3.933h131.88a3.94 3.94 0 003.931-3.933v-3.765c0-.367.3-.667.666-.667.366 0 .666.3.666.667v3.765c0 2.9-2.365 5.266-5.263 5.266zM54.997 121.841a.668.668 0 01-.666-.666V50.356c0-2.9 2.365-5.265 5.263-5.265h4.097c.367 0 .666.3.666.666 0 .367-.3.667-.666.667h-4.097a3.939 3.939 0 00-3.931 3.932v70.819c0 .366-.3.666-.666.666z" fill="#341472"/><path opacity=".5" d="M164.491 102.512H86.543c-.2 0-.334-.133-.334-.333s.134-.334.334-.334h77.981c.2 0 .333.134.333.334s-.166.333-.366.333zM164.491 125.674H86.543c-.2 0-.334-.133-.334-.333s.134-.334.334-.334h77.981c.2 0 .333.134.333.334s-.166.333-.366.333zM164.491 138.804H86.543c-.2 0-.334-.133-.334-.333s.134-.333.334-.333h77.981c.2 0 .333.133.333.333s-.166.333-.366.333zM164.491 152.168H86.543c-.2 0-.334-.133-.334-.333s.134-.333.334-.333h77.981c.2 0 .333.133.333.333s-.166.333-.366.333z" fill="#AFAAE5"/><path d="M164.491 119.408h-4.33a.669.669 0 01-.667-.666c0-.367.3-.667.667-.667h4.33a.668.668 0 010 1.333zM122.053 119.408h-21.719a.668.668 0 01-.666-.666c0-.367.3-.667.666-.667h21.719c.366 0 .666.3.666.667 0 .366-.3.666-.666.666zM94.37 109.177h-7.827a.668.668 0 01-.667-.666c0-.367.3-.667.667-.667h7.828c.366 0 .666.3.666.667 0 .366-.3.666-.666.666z" fill="#341472"/><path opacity=".5" d="M107.862 109.177h-7.828a.668.668 0 01-.666-.666c0-.367.3-.667.666-.667h7.828c.366 0 .666.3.666.667 0 .366-.3.666-.666.666z" fill="#AFAAE5"/><path d="M110.594 94.047H87.409c-.733 0-1.333-.6-1.333-1.333s.6-1.333 1.333-1.333h23.185c.732 0 1.332.6 1.332 1.333s-.6 1.333-1.332 1.333z" fill="#341472"/><path d="M92.372 122.674h-3.83c-1.1 0-2-.899-2-1.999v-3.833c0-1.099.9-1.999 2-1.999h3.83c1.1 0 1.999.9 1.999 1.999v3.833c0 1.1-.9 1.999-1.999 1.999z" fill="#CAB5FF"/><path d="M154.431 119.408h-1.665a.669.669 0 01-.667-.666c0-.367.3-.667.667-.667h1.665a.668.668 0 010 1.333zM147.769 119.408h-1.666a.668.668 0 01-.666-.666c0-.367.3-.667.666-.667h1.666c.366 0 .666.3.666.667 0 .366-.3.666-.666.666zM164.491 132.606h-4.33a.669.669 0 01-.667-.667c0-.366.3-.666.667-.666h4.33a.668.668 0 010 1.333zM141.173 132.606h-40.839a.669.669 0 01-.666-.667c0-.366.3-.666.666-.666h40.873c.366 0 .666.3.666.666 0 .367-.333.667-.7.667z" fill="#341472"/><path d="M92.372 135.872h-3.83c-1.1 0-2-.9-2-2v-3.832c0-1.1.9-2 2-2h3.83c1.1 0 1.999.9 1.999 2v3.832c0 1.1-.9 2-1.999 2z" fill="#FFA1A1"/><path d="M154.431 132.606h-1.665a.669.669 0 01-.667-.667c0-.366.3-.666.667-.666h1.665a.668.668 0 010 1.333zM147.769 132.606h-1.666a.669.669 0 01-.666-.667c0-.366.3-.666.666-.666h1.666c.366 0 .666.3.666.666 0 .367-.3.667-.666.667zM164.491 145.803h-4.897a.669.669 0 01-.666-.667c0-.366.3-.666.666-.666h4.897a.668.668 0 010 1.333zM108.128 145.803H100.3a.668.668 0 01-.666-.667c0-.366.3-.666.666-.666h7.828c.367 0 .667.3.667.666 0 .367-.3.667-.667.667zM137.109 145.803h-23.184a.668.668 0 010-1.333h23.218c.366 0 .666.3.666.666 0 .367-.333.667-.7.667z" fill="#341472"/><path d="M92.372 149.069h-3.83c-1.1 0-2-.9-2-2v-3.832c0-1.1.9-2 2-2h3.83c1.1 0 1.999.9 1.999 2v3.832c0 1.1-.9 2-1.999 2z" fill="#99E0FF"/><path d="M153.865 145.803h-1.666a.669.669 0 01-.666-.667c0-.366.3-.666.666-.666h1.666c.366 0 .666.3.666.666 0 .367-.3.667-.666.667zM147.203 145.803h-1.666a.669.669 0 01-.666-.667c0-.366.3-.666.666-.666h1.666c.366 0 .666.3.666.666 0 .367-.3.667-.666.667z" fill="#341472"/><path d="M162.992 90.215h-16.023c-.832 0-1.499.666-1.499 1.5v2.032c0 .833.667 1.5 1.499 1.5h16.023c.833 0 1.499-.667 1.499-1.5v-2.033c0-.833-.666-1.5-1.499-1.5z" fill="#38F2AF"/><path d="M162.992 95.88h-16.023a2.161 2.161 0 01-2.165-2.166V91.68c0-1.2.966-2.166 2.165-2.166h16.023c1.199 0 2.165.966 2.165 2.166v2.033c0 1.2-.966 2.166-2.165 2.166zm-15.989-4.999a.825.825 0 00-.833.833v2.033c0 .467.366.833.833.833h16.022a.825.825 0 00.833-.833v-2.033a.825.825 0 00-.833-.833h-16.022z" fill="#38F2AF"/><path d="M194.705 78.884H56.329v6.432h138.376v-6.432z" fill="#341472"/><path d="M195.371 86.015H55.663V78.25h139.708v7.765zM56.995 84.682h137.043v-5.099H56.995v5.1z" fill="#341472"/><path d="M62.992 79.883c-.1-.266-.5-.266-.567 0l-.3 1.233a.25.25 0 01-.233.167H60.36a.25.25 0 01-.233-.167l-.333-1.266c-.067-.3-.467-.3-.567 0 0 0-.333 1.2-.566 1.933-.1.3.033.633.3.833l1.799 1.3c.2.166.5.166.733 0l1.798-1.3a.818.818 0 00.3-.833l-.6-1.9z" fill="#FC6D26"/><path opacity=".2" d="M70.553 82.75h-4.097a.882.882 0 01-.866-.867c0-.467.4-.867.866-.867h4.097c.467 0 .867.4.867.867 0 .467-.4.867-.867.867zM90.14 82.75h-4.097a.882.882 0 01-.866-.867c0-.467.4-.867.866-.867h4.097c.467 0 .867.4.867.867 0 .467-.4.867-.867.867zM97.635 82.75h-4.097a.882.882 0 01-.866-.867c0-.467.4-.867.866-.867h4.097c.467 0 .867.4.867.867a.86.86 0 01-.867.867z" fill="#fff"/><path opacity=".5" d="M82.312 83.516h-7.995a.882.882 0 01-.866-.867v-1.566c0-.466.4-.866.867-.866h7.994c.467 0 .866.4.866.866v1.566c0 .5-.4.867-.866.867z" fill="#fff"/><path opacity=".2" d="M178.149 83.483h-13.325c-.632 0-1.132-.5-1.132-1.133v-1.034c0-.633.5-1.133 1.132-1.133h13.325c.633 0 1.133.5 1.133 1.133v1.034c0 .633-.5 1.133-1.133 1.133zM191.673 83.816a1.966 1.966 0 100-3.932 1.966 1.966 0 000 3.932zM186.876 83.216h-.599a.86.86 0 01-.866-.866v-1c0-.5.399-.867.866-.867h.599c.5 0 .866.4.866.867v1a.882.882 0 01-.866.866zM182.813 83.216h-.6a.86.86 0 01-.866-.866v-1c0-.5.4-.867.866-.867h.6c.499 0 .866.4.866.867v1c.033.466-.367.866-.866.866z" fill="#fff"/><path d="M207.429 152.901c8.169 0 14.791-6.624 14.791-14.796 0-8.173-6.622-14.797-14.791-14.797-8.168 0-14.79 6.624-14.79 14.797 0 8.172 6.622 14.796 14.79 14.796z" fill="#fff"/><path d="M205.631 137.305c-.667 1.066-.2 2.533.999 2.966l10.293 4.166-8.194-7.499c-.9-.9-2.399-.7-3.098.367z" fill="#AC7FFF"/><path d="M218.022 138.238h-3.098a.669.669 0 01-.666-.667c0-.366.3-.666.666-.666h3.098a.668.668 0 010 1.333zM199.901 138.238h-3.098a.669.669 0 01-.666-.667c0-.366.3-.666.666-.666h3.098c.366 0 .666.3.666.666 0 .367-.3.667-.666.667zM207.429 130.706a.668.668 0 01-.666-.666v-3.1c0-.366.3-.666.666-.666.367 0 .666.3.666.666v3.1a.668.668 0 01-.666.666zM201.233 133.139a.659.659 0 01-.466-.2l-2.198-2.2a.644.644 0 010-.933.644.644 0 01.932 0l2.199 2.2a.645.645 0 010 .933c-.1.133-.3.2-.467.2zM213.592 133.139a.66.66 0 01-.467-.2.645.645 0 010-.933l2.199-2.2a.645.645 0 01.933 0 .645.645 0 010 .933l-2.199 2.2c-.133.133-.3.2-.466.2zM199.301 145.303a.659.659 0 01-.466-.2.645.645 0 010-.933l2.199-2.2a.644.644 0 01.932 0 .645.645 0 010 .934l-2.198 2.199a.66.66 0 01-.467.2zM217.323 145.07c-.067 0-.167 0-.233-.034l-10.427-3.832c-.766-.267-1.366-.833-1.632-1.6-.3-.766-.2-1.599.2-2.299a2.673 2.673 0 011.898-1.3c.8-.133 1.599.133 2.199.667l8.428 7.198c.233.2.3.567.133.833-.1.267-.333.367-.566.367zm-10.96-7.065c-.2.366-.233.766-.1 1.166.134.367.433.667.833.8l6.995 2.566-5.629-4.832c-.333-.3-.733-.4-1.133-.334a1.22 1.22 0 00-.966.634z" fill="#380D75"/><path d="M210.694 153.101a.638.638 0 01-.633-.533.678.678 0 01.499-.8c6.363-1.433 10.993-7.231 10.993-13.797 0-7.798-6.329-14.13-14.124-14.13a.669.669 0 01-.666-.667c0-.366.3-.666.666-.666 8.528 0 15.457 6.932 15.457 15.463 0 7.165-5.064 13.531-12.059 15.097-.033.033-.1.033-.133.033zM207.429 153.468c-8.527 0-15.456-6.932-15.456-15.463 0-7.599 5.43-14.031 12.925-15.264.366-.067.699.2.766.533.066.367-.2.7-.533.767a14.103 14.103 0 00-11.826 13.93c0 7.799 6.33 14.131 14.124 14.131.367 0 .667.3.667.666 0 .367-.3.7-.667.7z" fill="#380D75"/><path d="M60.36 25.928c2.398-.6 6.43-2.3 9.06-6.932 6.596 4.566 13.159 1.7 13.159 1.7 1.665 8.498 3.464 11.564 2.332 16.563-.8 3.5-5.064 8.631-8.795 10.998-4.363-.534-10.46-3.266-12.691-6.066-3.165-3.966-2.898-7.532-5.097-15.93" fill="#fff"/><path d="M77.582 29.327l-1.699-1.066a.858.858 0 00-1.166.266l-3.264 5.2-1.999-1.234a.858.858 0 00-1.166.267l-1.066 1.7c-.233.4-.133.9.267 1.166l4.53 2.833c.333.2.733.1.966-.234l4.864-7.765c.233-.366.133-.866-.267-1.133z" fill="#18A3FF"/><path d="M76.15 48.823h-.067c-4.23-.5-10.66-3.233-13.125-6.299-2.298-2.899-2.864-5.598-3.73-9.73-.367-1.834-.8-3.9-1.466-6.433-.1-.366.133-.733.466-.8.367-.1.733.134.8.467.666 2.566 1.099 4.666 1.499 6.498.866 4.066 1.365 6.532 3.464 9.165 2.032 2.533 7.862 5.3 12.259 5.832a.672.672 0 01.6.734c-.1.333-.367.566-.7.566z" fill="#380D75"/><path d="M76.15 48.823a.654.654 0 01-.567-.3c-.2-.3-.1-.733.2-.933 3.731-2.4 7.795-7.432 8.495-10.598.732-3.299.133-5.732-.867-9.764-.4-1.633-.866-3.5-1.332-5.733-1.899.6-7.062 1.7-12.425-1.666-2.798 4.466-6.895 6.066-9.127 6.632-.367.1-.733-.133-.8-.466-.1-.367.133-.734.467-.8a13.833 13.833 0 008.66-6.632.736.736 0 01.433-.333c.2-.034.4 0 .533.1 6.196 4.265 12.459 1.666 12.526 1.666.2-.067.4-.067.566.033.166.1.3.267.333.467.5 2.566 1 4.632 1.466 6.432 1.032 4.099 1.699 6.798.866 10.398-.866 3.865-5.497 9.131-9.094 11.397-.1.067-.233.1-.333.1z" fill="#380D75"/><path d="M72.186 38.992c-.367 0-.733-.1-1.066-.3l-3.964-2.5c-.7-.433-.933-1.366-.467-2.066l1.066-1.7c.433-.7 1.366-.933 2.066-.466l1.432.9 2.898-4.633c.433-.7 1.366-.933 2.065-.466l1.7 1.066c.332.2.566.533.666.933.1.4.033.8-.2 1.133l-4.497 7.199c-.367.567-1.033.9-1.7.9zm-3.165-5.966a.255.255 0 00-.166.067l-1.066 1.7c-.067.066-.034.2.066.233l3.964 2.5c.334.2.733.1.933-.2l4.53-7.166c.034-.066.034-.1.034-.133s-.034-.067-.067-.1l-1.699-1.066c-.066-.067-.2-.034-.233.066l-3.264 5.2c-.1.133-.234.266-.4.3a.656.656 0 01-.5-.1l-1.999-1.234c-.066-.033-.1-.067-.133-.067z" fill="#380D75"/><path d="M176.317 49.023c-2.799-.3-4.797-2.833-4.464-5.632l.899-9.465 10.36 1.167-.966 7.465-.233 1.966a5.064 5.064 0 01-5.596 4.5zM181.746 21.762a1.932 1.932 0 100-3.865 1.932 1.932 0 000 3.865z" fill="#AC7FFF"/><path d="M176.916 49.99c-.233 0-.466 0-.666-.034-3.298-.366-5.663-3.366-5.297-6.632l1.433-12.664a.672.672 0 01.733-.6.672.672 0 01.599.734l-1.432 12.664c-.3 2.566 1.566 4.865 4.097 5.165 2.565.3 4.864-1.566 5.163-4.099l1.433-12.664a.672.672 0 01.733-.6.672.672 0 01.599.733l-1.432 12.664c-.333 3.066-2.932 5.333-5.963 5.333zM184.811 29.894h-.233l-12.026-1.367a2.01 2.01 0 01-1.765-2.2l.133-1.166a2.01 2.01 0 012.199-1.766l12.025 1.367c.533.066.999.333 1.332.733.334.433.467.933.434 1.466l-.134 1.167c-.1 1-.966 1.766-1.965 1.766zm-11.859-5.166a.681.681 0 00-.666.6l-.133 1.166c-.034.367.233.7.599.734l12.026 1.366c.166.033.333-.033.499-.133a.567.567 0 00.233-.433l.134-1.167c.033-.167-.034-.333-.134-.5a.567.567 0 00-.433-.233l-12.025-1.366c-.067-.034-.1-.034-.1-.034zM181.546 22.395h-.066a2.588 2.588 0 01-2.266-2.866c.067-.7.433-1.3.966-1.733a2.428 2.428 0 011.899-.533c.7.067 1.299.433 1.732.966.433.534.633 1.2.533 1.9a.671.671 0 01-.732.6.672.672 0 01-.6-.733 1.341 1.341 0 00-.267-.933 1.178 1.178 0 00-.832-.467 1.339 1.339 0 00-.933.267c-.267.2-.433.5-.466.833-.067.7.433 1.3 1.099 1.4a.672.672 0 01.599.733c-.066.3-.333.566-.666.566z" fill="#380D75"/><path d="M175.417 31.527h-.066l-2.332-.267a.672.672 0 01-.6-.733.672.672 0 01.733-.6l2.332.267a.672.672 0 01.599.733.681.681 0 01-.666.6zM179.614 35.393h-.066l-6.929-.8a.673.673 0 01-.6-.733.673.673 0 01.733-.6l6.929.8a.673.673 0 01.6.733.656.656 0 01-.667.6zM174.651 38.259h-.067l-2.331-.267a.672.672 0 01-.6-.733.672.672 0 01.733-.6l2.332.267a.672.672 0 01.599.733.681.681 0 01-.666.6zM174.284 41.625h-.066l-2.332-.267a.672.672 0 01-.599-.733.671.671 0 01.732-.6l2.332.267a.672.672 0 01.6.733c-.067.333-.333.6-.667.6z" fill="#380D75"/><path d="M12.359 109.277l3.464-2.533a.267.267 0 00.1-.299l-1.2-3.666c-.033-.134-.232-.134-.266 0l-.8 2.432h-2.63l-.8-2.432c-.034-.134-.233-.134-.267 0l-1.199 3.666c-.033.1 0 .233.1.299l3.498 2.533z" fill="#FC6D26"/><path d="M1.499 110.777c-.266 0-.5-.167-.633-.433A12.364 12.364 0 010 105.778c0-6.799 5.53-12.364 12.358-12.364 1.566 0 3.098.3 4.564.866.333.134.5.534.367.867a.676.676 0 01-.867.366c-1.299-.5-2.664-.766-4.064-.766-6.095.067-11.026 4.999-11.026 11.064 0 1.4.267 2.766.767 4.066a.678.678 0 01-.367.867c-.066.033-.166.033-.233.033zM12.359 118.175c-1.899 0-3.731-.433-5.397-1.233a.667.667 0 01-.3-.899.667.667 0 01.9-.3 10.918 10.918 0 004.83 1.099c6.063 0 11.026-4.932 11.026-11.031a10.92 10.92 0 00-.966-4.499.634.634 0 01.333-.866.634.634 0 01.866.333c.7 1.6 1.066 3.299 1.066 5.032-.033 6.832-5.563 12.364-12.358 12.364z" fill="#380D75"/><path d="M4.33 106.478a.668.668 0 01-.666-.667c0-2.333.9-4.499 2.532-6.132a8.683 8.683 0 0112.292 0c.3.3.6.633.832.967.234.3.167.7-.133.933-.3.233-.7.166-.933-.133-.2-.3-.466-.567-.7-.834-2.864-2.866-7.527-2.866-10.392 0a7.289 7.289 0 00-2.165 5.199c0 .367-.3.667-.667.667zM12.359 114.509c-2.232 0-4.464-.833-6.13-2.532-.3-.3-.6-.634-.866-1-.233-.3-.166-.7.134-.933.3-.234.7-.167.932.133.233.3.467.567.733.833 2.865 2.866 7.529 2.866 10.393 0a7.285 7.285 0 002.166-5.199c0-.366.3-.666.666-.666.366 0 .666.3.666.666 0 2.333-.9 4.499-2.532 6.132a8.677 8.677 0 01-6.162 2.566z" fill="#380D75"/><path d="M18.788 101.712h-2.132a.668.668 0 01-.666-.666c0-.367.3-.667.666-.667h1.465v-1.466c0-.367.3-.667.667-.667.366 0 .666.3.666.667v2.133c0 .366-.3.666-.666.666zM5.896 113.376a.668.668 0 01-.666-.666v-2.133c0-.367.3-.667.666-.667h2.132c.367 0 .666.3.666.667 0 .367-.3.667-.666.667H6.562v1.466c0 .366-.3.666-.666.666zM12.359 109.944a.64.64 0 01-.4-.134l-3.464-2.499a.901.901 0 01-.334-1.033l1.2-3.666a.821.821 0 01.766-.567c.333 0 .666.234.766.567l.633 1.966h1.665l.633-1.966a.79.79 0 01.767-.567c.333 0 .666.234.766.534l1.199 3.666c.133.399 0 .799-.333 1.066l-3.465 2.533a.895.895 0 01-.4.1zm-2.865-3.566l2.831 2.066 2.832-2.066-.6-1.866-.3.899c-.1.267-.333.467-.633.467h-2.631c-.3 0-.533-.2-.633-.467l-.3-.899-.566 1.866z" fill="#380D75"/><path d="M21.952 76.118l-3.464 4.499s6.695 1 10.693-3.966c1.232-1.533 1.632-3.533 1.166-5.432l-8.395 4.899zM14.357 67.986l-4.43 3.566s-1.133-6.666 3.73-10.765c1.5-1.266 3.498-1.7 5.397-1.3l-4.697 8.499zM30.347 63.487a3.532 3.532 0 10-.002-7.064 3.532 3.532 0 00.002 7.064z" fill="#AC7FFF"/><path d="M24.95 74.218l-2.998 1.9-7.495-7.499 1.632-3.7 8.861 9.299zM40.74 56.588c.466-2 .6-4.166.333-6.532-2.565-.8-4.997-1.066-7.295-.833l6.962 7.365z" fill="#FCA121"/><path d="M21.952 76.784a.658.658 0 01-.466-.2l-7.729-7.732a.66.66 0 01-.1-.833l5.963-9.398c3.098-4.432 6.63-7.432 10.493-8.998a.676.676 0 01.866.367.676.676 0 01-.366.866c-3.63 1.5-6.962 4.332-9.893 8.532l-5.663 8.898 6.962 6.965 8.927-5.666c7.595-5.365 10.726-11.93 9.26-19.529-2.331-.433-4.563-.466-6.662-.066a.65.65 0 01-.766-.534.65.65 0 01.533-.766c2.432-.467 4.997-.4 7.629.166.266.067.466.267.5.5 1.798 8.332-1.5 15.497-9.728 21.33l-9.393 5.998a.758.758 0 01-.367.1z" fill="#380D75"/><path d="M24.65 74.284a.658.658 0 01-.466-.2l-7.862-7.831a.644.644 0 010-.933.644.644 0 01.933 0l7.828 7.831a.644.644 0 010 .934c-.1.133-.266.2-.433.2zM30.347 64.153a4.13 4.13 0 01-2.965-1.233 4.133 4.133 0 01-1.233-2.966c0-1.133.433-2.166 1.233-2.966.8-.8 1.832-1.233 2.965-1.233 1.132 0 2.165.433 2.964 1.233.8.8 1.233 1.833 1.233 2.966a4.133 4.133 0 01-1.233 2.966c-.8.8-1.832 1.233-2.964 1.233zm0-7.065c-.767 0-1.466.3-2.032.833a2.875 2.875 0 00-.833 2.033c0 .767.3 1.466.833 2.033a2.872 2.872 0 002.032.833c.766 0 1.465-.3 2.032-.833a2.875 2.875 0 00.832-2.033c0-.766-.3-1.466-.832-2.033a2.872 2.872 0 00-2.032-.833zM40.673 57.521a.658.658 0 01-.466-.2l-7.229-7.498a.644.644 0 01.033-.933.644.644 0 01.933.033l7.229 7.498c.266.267.233.7-.034.934-.133.133-.3.166-.466.166zM9.694 72.485c-.067 0-.167 0-.234-.033-.2-.067-.366-.267-.433-.5-.033-.1-1.665-8.965 6.796-12.498a.676.676 0 01.866.367.677.677 0 01-.366.866c-5.83 2.433-6.23 7.599-6.13 9.898l3.565-2.732c.3-.234.7-.167.932.133.233.3.167.7-.133.933l-4.497 3.466c-.067.067-.2.1-.366.1zM20.22 81.416c-1.1 0-1.832-.133-1.865-.133-.234-.033-.4-.2-.5-.433a.714.714 0 01.1-.633l3.464-4.5c.233-.3.633-.333.933-.133.3.233.333.633.133.933l-2.731 3.566c2.331.134 7.595-.333 9.993-6.398a.676.676 0 01.866-.367c.333.133.5.533.367.867-2.499 6.332-7.895 7.231-10.76 7.231z" fill="#380D75"/><path d="M47.669 122.608l.766-.333a2.39 2.39 0 013.164 1.233l9.16 20.662c.534 1.2 0 2.633-1.232 3.166l-16.256 7.232c-1.199.533-2.631 0-3.164-1.233l-9.16-20.663a2.393 2.393 0 011.232-3.166l.932-.433" fill="#fff"/><path d="M48.828 124.933l-15.073 6.69 8.523 19.222 15.073-6.689-8.523-19.223z" fill="#38F2AF"/><path d="M42.305 155.401c-.366 0-.733-.067-1.099-.2a3.077 3.077 0 01-1.699-1.6l-9.16-20.662a2.984 2.984 0 01-.067-2.333c.3-.766.866-1.366 1.599-1.699l.933-.434c.333-.133.733 0 .866.334.133.333 0 .733-.333.866l-.933.433c-.433.2-.733.533-.9.967-.166.433-.166.9.034 1.333l9.16 20.662c.2.433.533.733.966.9.434.167.9.167 1.333-.033l16.256-7.232c.433-.2.733-.533.9-.967a1.686 1.686 0 00-.034-1.333l-9.16-20.662a1.71 1.71 0 00-.967-.9 1.683 1.683 0 00-1.332.033l-.766.334c-.334.133-.733 0-.866-.334-.134-.333 0-.733.333-.866l.766-.333c1.532-.7 3.364 0 4.03 1.566l9.161 20.662c.333.734.367 1.567.067 2.333a3.078 3.078 0 01-1.6 1.7l-16.255 7.232c-.4.133-.833.233-1.233.233z" fill="#380D75"/><path d="M36.476 131.673c-.267 0-.5-.134-.6-.4l-1.932-4.366c-.133-.333 0-.733.333-.867l1.6-.699c-.434-2.133.765-3.766 2.231-4.4 1.466-.633 3.498-.466 4.764 1.3l1.599-.7a.66.66 0 01.866.367l1.932 4.366a.65.65 0 010 .5.66.66 0 01-.367.366l-10.16 4.499c-.066.034-.166.034-.266.034zm-1.066-4.666l1.399 3.166 8.96-3.966-1.398-3.166-1.5.667c-.3.133-.699 0-.866-.3-.832-1.533-2.298-1.7-3.397-1.233-1 .433-1.932 1.566-1.333 3.332a.682.682 0 01-.366.833l-1.5.667zM40.34 136.238c-.067 0-.167 0-.233-.033l-1.333-.5a.676.676 0 01-.366-.866.676.676 0 01.866-.367l.7.267.966-2.533a.677.677 0 01.866-.367c.333.134.5.533.366.867l-1.232 3.166a.66.66 0 01-.367.366c-.033-.033-.133 0-.233 0zM44.804 146.303c-.067 0-.167 0-.233-.033l-1.333-.5a.677.677 0 01-.366-.867.675.675 0 01.866-.366l.7.266.965-2.533a.676.676 0 01.866-.366c.334.133.5.533.367.866l-1.233 3.166c-.066.2-.333.367-.6.367zM42.172 141.537c-.066 0-.166 0-.233-.033a.677.677 0 01-.366-.867l1.199-3.132a.676.676 0 01.866-.367c.333.133.5.533.366.867l-1.199 3.132c-.133.234-.366.4-.633.4z" fill="#380D75"/><path d="M44.337 140.571c-.066 0-.166 0-.233-.034l-3.131-1.199a.678.678 0 01-.367-.867.675.675 0 01.867-.366l3.13 1.199c.334.134.5.534.367.867a.686.686 0 01-.633.4zM45.17 133.172c-.267 0-.5-.133-.6-.4-.133-.333 0-.733.334-.866l2.698-1.2c.333-.133.733 0 .866.333.133.334 0 .734-.333.867l-2.699 1.2c-.1.033-.2.066-.266.066zM47.235 137.871c-.266 0-.5-.133-.6-.4-.133-.333 0-.733.334-.866l2.698-1.2c.333-.133.733 0 .866.333.133.334 0 .734-.333.867l-2.698 1.2c-.067.066-.167.066-.267.066zM49.467 142.904c-.266 0-.5-.134-.6-.4-.133-.334 0-.734.334-.867l2.698-1.2c.333-.133.733 0 .866.334.133.333 0 .733-.333.866l-2.698 1.2c-.067.067-.167.067-.267.067zM57.196 145.27c-.267 0-.5-.134-.6-.4l-8.428-19.03c-.133-.333 0-.733.333-.866.334-.133.733 0 .867.333l8.427 19.03c.133.333 0 .733-.333.866a.632.632 0 01-.266.067z" fill="#380D75"/><path d="M42.805 151.635c-.067 0-.167 0-.233-.033a.66.66 0 01-.367-.367l-8.427-19.029c-.134-.333 0-.733.333-.867.333-.133.733 0 .866.334l8.161 18.429 11.492-5.099c.334-.133.733 0 .867.333.133.334 0 .734-.334.867l-12.091 5.365c-.067.067-.167.067-.267.067z" fill="#380D75"/><path d="M230.981 112.077h-3.065v3.066h3.065v-3.066z" fill="#FCA121"/><path d="M239.975 111.144a5.265 5.265 0 005.263-5.266 5.265 5.265 0 00-5.263-5.266 5.265 5.265 0 00-5.264 5.266 5.265 5.265 0 005.264 5.266z" fill="#38F2AF"/><path d="M240.008 114.276h-8.528a.668.668 0 01-.666-.666c0-.367.3-.667.666-.667h8.528c3.997 0 7.262-3.266 7.262-7.265 0-3.999-3.265-7.265-7.262-7.265-.766 0-1.532.133-2.265.367-.366.1-.733-.067-.833-.434-.1-.333.067-.733.433-.833a8.173 8.173 0 012.698-.433c4.731 0 8.595 3.866 8.595 8.598 0 4.732-3.898 8.598-8.628 8.598zM250.568 114.276h-3.565a.668.668 0 01-.666-.666c0-.367.3-.667.666-.667h3.565c.366 0 .666.3.666.667 0 .366-.3.666-.666.666z" fill="#380D75"/><path d="M234.112 111.643a.641.641 0 01-.5-.233c-1.432-1.566-2.198-3.632-2.198-5.765a8.578 8.578 0 013.031-6.566.676.676 0 01.933.067c.233.267.199.7-.067.933-1.632 1.4-2.565 3.399-2.565 5.532 0 1.8.666 3.533 1.865 4.866.234.267.234.7-.033.933-.133.2-.3.233-.466.233zM230.981 115.809h-3.065a.668.668 0 01-.666-.666v-3.066c0-.367.3-.667.666-.667h3.065c.366 0 .666.3.666.667v3.066c0 .366-.3.666-.666.666zm-2.399-1.333h1.732v-1.733h-1.732v1.733zM249.868 116.143a.659.659 0 01-.466-.2.645.645 0 010-.934l1.299-1.299-1.299-1.3a.644.644 0 010-.933.642.642 0 01.932 0l1.799 1.799a.645.645 0 010 .934l-1.799 1.799a1.075 1.075 0 01-.466.134zM239.109 100.312a.754.754 0 01-.367-.1l-2.132-1.366c-.3-.2-.399-.6-.2-.933l1.366-2.133c.2-.3.6-.4.933-.2.3.2.4.6.2.933l-1 1.567 1.566 1c.3.2.4.6.2.933a.655.655 0 01-.566.299zM238.975 108.244a.659.659 0 01-.466-.2l-1.399-1.4a.644.644 0 010-.933.644.644 0 01.932 0l.933.933 2.932-2.932a.642.642 0 01.932 0 .644.644 0 010 .933l-3.431 3.433a.636.636 0 01-.433.166z" fill="#380D75"/><path d="M125.517 26.294l7.695-5.432c.2-.166.3-.4.233-.666l-2.631-7.899c-.1-.266-.5-.266-.567 0l-1.765 5.266h-5.83l-1.765-5.266a.3.3 0 00-.566 0l-2.632 7.899c-.067.233 0 .5.233.666l7.595 5.433z" fill="#FC6D26"/><path d="M108.762 5.132c1.269 0 2.298-1 2.298-2.233S110.031.667 108.762.667c-1.27 0-2.299 1-2.299 2.232 0 1.234 1.029 2.233 2.299 2.233zM104.131 18.796c1.27 0 2.299-1 2.299-2.233s-1.029-2.233-2.299-2.233c-1.269 0-2.298 1-2.298 2.233s1.029 2.233 2.298 2.233zM108.762 37.492c1.269 0 2.298-1 2.298-2.233s-1.029-2.233-2.298-2.233c-1.27 0-2.299 1-2.299 2.233s1.029 2.233 2.299 2.233zM110.46 26.994c1.27 0 2.299-1 2.299-2.232 0-1.234-1.029-2.233-2.299-2.233-1.269 0-2.298 1-2.298 2.233s1.029 2.232 2.298 2.232zM142.273 5.132c1.269 0 2.298-1 2.298-2.233S143.542.667 142.273.667c-1.27 0-2.299 1-2.299 2.232 0 1.234 1.029 2.233 2.299 2.233zM146.903 18.796c1.269 0 2.298-1 2.298-2.233s-1.029-2.233-2.298-2.233c-1.269 0-2.299 1-2.299 2.233s1.03 2.233 2.299 2.233zM142.273 37.492c1.269 0 2.298-1 2.298-2.233s-1.029-2.233-2.298-2.233c-1.27 0-2.299 1-2.299 2.233s1.029 2.233 2.299 2.233zM140.574 26.994c1.269 0 2.298-1 2.298-2.232 0-1.234-1.029-2.233-2.298-2.233-1.27 0-2.299 1-2.299 2.233s1.029 2.232 2.299 2.232z" fill="#AC7FFF"/><path d="M125.517 26.961a.643.643 0 01-.4-.133l-7.695-5.432c-.466-.334-.633-.9-.466-1.4l2.632-7.898a.97.97 0 01.932-.667c.4 0 .767.267.9.667l1.599 4.798h4.896l1.599-4.799c.134-.4.5-.666.9-.666s.799.267.933.633l2.631 7.932c.167.533 0 1.1-.466 1.4l-7.695 5.432c-.033.066-.167.133-.3.133zm-7.262-6.599l7.262 5.1 7.229-5.1-2.266-6.831-1.399 4.232c-.1.267-.333.467-.633.467h-5.829c-.3 0-.533-.167-.633-.467l-1.432-4.233-2.299 6.832z" fill="#380D75"/><path d="M117.889 17.196l-11.459-.1a.669.669 0 01-.667-.666c0-.367.3-.667.667-.667l10.193.067-6.929-10.298c-.2-.3-.133-.733.167-.933.3-.2.733-.133.932.167l7.629 11.364c.133.2.166.466.033.7a.616.616 0 01-.566.366z" fill="#380D75"/><path d="M108.762 5.832c-1.633 0-2.965-1.3-2.965-2.9 0-1.599 1.332-2.899 2.965-2.899 1.632 0 2.964 1.3 2.964 2.9 0 1.6-1.332 2.9-2.964 2.9zm0-4.499c-.9 0-1.633.7-1.633 1.566 0 .867.733 1.567 1.633 1.567.899 0 1.632-.7 1.632-1.567 0-.866-.733-1.566-1.632-1.566zM104.131 19.496c-1.632 0-2.964-1.3-2.964-2.9 0-1.6 1.332-2.899 2.964-2.899s2.965 1.3 2.965 2.9c0 1.6-1.333 2.899-2.965 2.899zm0-4.5c-.899 0-1.632.7-1.632 1.567s.733 1.567 1.632 1.567c.9 0 1.632-.7 1.632-1.567 0-.866-.732-1.566-1.632-1.566zM108.762 38.159c-1.633 0-2.965-1.3-2.965-2.9 0-1.6 1.332-2.9 2.965-2.9 1.632 0 2.964 1.3 2.964 2.9 0 1.6-1.332 2.9-2.964 2.9zm0-4.5c-.9 0-1.633.7-1.633 1.567s.733 1.566 1.633 1.566c.899 0 1.632-.7 1.632-1.566 0-.867-.733-1.566-1.632-1.566zM110.46 27.66c-1.632 0-2.964-1.299-2.964-2.898 0-1.6 1.332-2.9 2.964-2.9 1.633 0 2.965 1.3 2.965 2.9 0 1.6-1.332 2.899-2.965 2.899zm0-4.465c-.899 0-1.632.7-1.632 1.567 0 .866.733 1.566 1.632 1.566.9 0 1.633-.7 1.633-1.566 0-.867-.733-1.567-1.633-1.567z" fill="#380D75"/><path d="M110.46 34.393a.657.657 0 01-.466-.2c-.266-.267-.266-.7 0-.933l10.493-10.231c.267-.267.7-.267.933 0 .266.266.266.7 0 .933l-10.493 10.264c-.133.1-.3.167-.467.167z" fill="#380D75"/><path d="M114.857 30.094a.677.677 0 01-.499-.2l-2.698-2.866a.644.644 0 01.033-.933.644.644 0 01.933.033l2.231 2.366 1.799-1.766c.267-.267.7-.267.933 0 .266.266.266.7 0 .933l-2.298 2.233c-.067.133-.234.2-.434.2zM133.145 17.196a.7.7 0 01-.599-.366c-.133-.233-.1-.467.033-.7l7.628-11.364c.2-.3.633-.4.933-.167.3.2.4.633.167.933l-6.929 10.298 10.193-.067a.668.668 0 010 1.333l-11.426.1z" fill="#380D75"/><path d="M142.273 5.832c-1.633 0-2.965-1.3-2.965-2.9 0-1.599 1.332-2.899 2.965-2.899 1.632 0 2.964 1.3 2.964 2.9 0 1.6-1.332 2.9-2.964 2.9zm0-4.499c-.9 0-1.633.7-1.633 1.566 0 .867.733 1.567 1.633 1.567.899 0 1.632-.7 1.632-1.567 0-.866-.733-1.566-1.632-1.566zM146.903 19.496c-1.632 0-2.965-1.3-2.965-2.9 0-1.6 1.333-2.899 2.965-2.899s2.965 1.3 2.965 2.9c0 1.6-1.333 2.899-2.965 2.899zm0-4.5c-.899 0-1.632.7-1.632 1.567s.733 1.567 1.632 1.567c.899 0 1.632-.7 1.632-1.567 0-.866-.733-1.566-1.632-1.566zM142.273 38.159c-1.633 0-2.965-1.3-2.965-2.9 0-1.6 1.332-2.9 2.965-2.9 1.632 0 2.964 1.3 2.964 2.9 0 1.6-1.332 2.9-2.964 2.9zm0-4.5c-.9 0-1.633.7-1.633 1.567s.733 1.566 1.633 1.566c.899 0 1.632-.7 1.632-1.566 0-.867-.733-1.566-1.632-1.566zM140.574 27.66c-1.632 0-2.965-1.299-2.965-2.898 0-1.6 1.333-2.9 2.965-2.9s2.965 1.3 2.965 2.9c0 1.6-1.333 2.899-2.965 2.899zm0-4.465c-.9 0-1.632.7-1.632 1.567 0 .866.732 1.566 1.632 1.566.899 0 1.632-.7 1.632-1.566 0-.867-.733-1.567-1.632-1.567z" fill="#380D75"/><path d="M140.574 34.393a.66.66 0 01-.467-.2l-10.526-10.231a.644.644 0 010-.933.644.644 0 01.933 0l10.493 10.23a.645.645 0 010 .934c-.1.133-.267.2-.433.2z" fill="#380D75"/><path d="M136.143 30.094a.657.657 0 01-.466-.2l-2.298-2.233a.644.644 0 010-.933.643.643 0 01.932 0l1.799 1.766 2.232-2.366a.675.675 0 01.933-.033.676.676 0 01.033.933l-2.698 2.866c-.1.133-.267.2-.467.2.034 0 .034 0 0 0z" fill="#380D75"/><path d="M216.357 56.288a2.266 2.266 0 10-.001-4.53 2.266 2.266 0 00.001 4.53zM216.357 62.654a7.934 7.934 0 004.997-1.767 6.604 6.604 0 00-4.997-2.266 6.604 6.604 0 00-4.997 2.266 8.006 8.006 0 004.997 1.767z" fill="#FCA121"/><path d="M235.578 63.12a2.266 2.266 0 10-.001-4.53 2.266 2.266 0 00.001 4.53zM235.578 69.486c1.898 0 3.63-.667 4.996-1.767a6.602 6.602 0 00-4.996-2.266 6.602 6.602 0 00-4.997 2.266 7.934 7.934 0 004.997 1.767z" fill="#FC6D26"/><path d="M225.318 81.816a5.802 5.802 0 01-5.797-5.799v-2.799h11.593v2.8c-.034 3.232-2.598 5.798-5.796 5.798z" fill="#AC7FFF"/><path d="M225.318 82.483a6.399 6.399 0 01-6.396-6.399v-3.366c0-.533-.267-1.066-.7-1.333-2.265-1.5-4.03-3.7-4.963-6.232a.665.665 0 01.4-.866.665.665 0 01.866.4 11.886 11.886 0 004.463 5.598c.833.534 1.3 1.467 1.3 2.466v3.367c0 2.799 2.265 5.065 5.063 5.065a5.062 5.062 0 005.063-5.066v-3.366c0-.666.2-1.266.633-1.8.233-.299.633-.332.933-.132.3.233.333.633.133.933-.233.3-.333.633-.333 1v3.366c-.067 3.499-2.965 6.365-6.462 6.365zM235.578 54.622a.656.656 0 01-.567-.3c-2.265-3.5-6.096-5.466-10.26-5.266-1.065.034-2.131.267-3.164.6a.644.644 0 01-.833-.4.644.644 0 01.4-.833c1.132-.4 2.332-.6 3.531-.666 4.563-.2 8.961 2.033 11.426 5.865.199.3.1.733-.2.933a.836.836 0 01-.333.067z" fill="#380D75"/><path d="M231.047 73.418h-11.459a.668.668 0 01-.666-.667c0-.366.3-.666.666-.666h11.459c.367 0 .666.3.666.666a.668.668 0 01-.666.667zM231.88 76.45h-13.158a.668.668 0 010-1.332h13.158c.366 0 .666.3.666.666 0 .367-.3.667-.666.667zM231.314 79.483h-11.826a.668.668 0 01-.666-.666c0-.367.3-.667.666-.667h11.826c.366 0 .666.3.666.667 0 .367-.3.666-.666.666zM221.22 61.42c-.166 0-.299-.066-.433-.166a6.62 6.62 0 00-4.397-1.666 6.62 6.62 0 00-4.397 1.666c-.266.233-.699.233-.933-.067-.233-.266-.233-.7.067-.933 1.466-1.3 3.331-2 5.297-2 1.965 0 3.83.7 5.296 2 .267.233.3.667.067.933-.2.167-.4.234-.567.234zM216.357 57.055a2.816 2.816 0 01-2.798-2.8c0-1.533 1.266-2.8 2.798-2.8a2.816 2.816 0 012.798 2.8c0 1.533-1.232 2.8-2.798 2.8zm0-4.266a1.48 1.48 0 00-1.466 1.466c0 .8.667 1.467 1.466 1.467a1.48 1.48 0 001.466-1.467c0-.8-.633-1.466-1.466-1.466z" fill="#380D75"/><path d="M216.39 63.32c-4.397 0-7.994-3.6-7.994-7.998 0-4.4 3.597-7.998 7.994-7.998s7.995 3.599 7.995 7.998-3.564 7.998-7.995 7.998zm0-14.663c-3.664 0-6.662 2.999-6.662 6.665s2.998 6.665 6.662 6.665c3.664 0 6.662-3 6.662-6.665 0-3.666-2.998-6.666-6.662-6.666zM240.374 68.052c-.166 0-.299-.066-.433-.166a6.62 6.62 0 00-4.397-1.666 6.62 6.62 0 00-4.397 1.666c-.266.233-.699.233-.933-.067-.233-.266-.233-.7.067-.933 1.466-1.3 3.331-2 5.297-2 1.965 0 3.83.7 5.296 2 .267.233.3.667.067.933-.2.167-.367.233-.567.233zM235.544 63.62a2.816 2.816 0 01-2.798-2.8c0-1.532 1.266-2.799 2.798-2.799a2.815 2.815 0 012.798 2.8c0 1.533-1.265 2.8-2.798 2.8zm0-4.266c-.799 0-1.465.667-1.465 1.467s.666 1.466 1.465 1.466c.8 0 1.466-.666 1.466-1.466 0-.8-.666-1.467-1.466-1.467z" fill="#380D75"/><path d="M235.577 69.952c-4.397 0-7.994-3.6-7.994-7.998 0-4.4 3.597-7.999 7.994-7.999 4.398 0 7.995 3.6 7.995 7.999 0 4.399-3.597 7.998-7.995 7.998zm0-14.663c-3.664 0-6.662 2.999-6.662 6.665s2.998 6.665 6.662 6.665c3.665 0 6.663-3 6.663-6.665 0-3.666-2.998-6.666-6.663-6.666z" fill="#380D75"/><path d="M215.891 21.895c0 1.067-.866 1.9-1.899 1.9a1.92 1.92 0 01-1.899-1.9c0-1.066.866-1.9 1.899-1.9.833 0 1.532.534 1.799 1.267.066.167.1.4.1.633z" fill="#18A3FF"/><path d="M221.387 27.128l2.665 1.833c1.099.733 1.232 2.3.3 3.232a2.14 2.14 0 01-3.265-.3l-1.732-3.166" fill="#AC7FFF"/><path d="M213.992 31.26c-5.163 0-9.394-4.199-9.394-9.398 0-4.432 3.165-8.298 7.495-9.198a9.193 9.193 0 011.899-.2c5.163 0 9.394 4.2 9.394 9.398 0 5.199-4.231 9.398-9.394 9.398zm0-17.43c-.533 0-1.099.067-1.632.167a8.064 8.064 0 00-6.429 7.898c0 4.433 3.597 8.065 8.061 8.065 4.43 0 8.061-3.599 8.061-8.065-.033-4.465-3.631-8.065-8.061-8.065z" fill="#380D75"/><path d="M222.853 33.493h-.233a2.674 2.674 0 01-2.032-1.2c0-.033-.034-.033-.034-.066l-.666-1.2c-.166-.333-.066-.733.267-.9.333-.167.733-.067.899.267l.633 1.166c.233.333.633.567 1.066.6.433.033.866-.133 1.166-.433.3-.3.466-.733.4-1.167a1.395 1.395 0 00-.633-1.066l-2.665-1.833c-.3-.2-.367-.633-.167-.933.2-.3.633-.367.933-.167l2.665 1.833c.666.467 1.132 1.2 1.199 2.033.067.833-.2 1.633-.799 2.233-.567.533-1.266.833-1.999.833zM213.992 26.628c-2.299 0-4.497-1.666-5.796-4.433a.667.667 0 01.3-.9.667.667 0 01.899.3c1.099 2.3 2.831 3.7 4.597 3.7 1.699 0 3.364-1.267 4.464-3.4-1.1-2.133-2.765-3.399-4.464-3.399-1.599 0-2.765 1.033-3.464 1.9a.65.65 0 01-.933.1.65.65 0 01-.1-.933c1.266-1.533 2.865-2.367 4.497-2.367 2.298 0 4.464 1.667 5.796 4.433.1.166.1.4 0 .566-1.332 2.767-3.498 4.433-5.796 4.433z" fill="#380D75"/><path d="M213.992 24.462a2.567 2.567 0 01-2.565-2.567c0-1.4 1.166-2.566 2.565-2.566 1.066 0 2.032.667 2.432 1.7.1.3.166.6.166.9-.033 1.366-1.199 2.533-2.598 2.533zm0-3.833c-.7 0-1.233.567-1.233 1.233 0 .667.567 1.233 1.233 1.233.666 0 1.232-.566 1.232-1.233 0-.133-.033-.3-.066-.433-.2-.467-.666-.8-1.166-.8z" fill="#380D75"/><path d="M34.31 25.295a4.998 4.998 0 004.997-5 4.998 4.998 0 10-9.993 0 4.998 4.998 0 004.997 5z" fill="#38F2AF"/><path d="M38.84 34.626c-.099 0-.232-.033-.332-.066l-4.197-2.333-4.198 2.333c-.2.1-.466.1-.666 0a.645.645 0 01-.333-.567v-5.166c0-.366.3-.666.666-.666.367 0 .666.3.666.666v4l3.531-1.967c.2-.1.434-.1.633 0l3.531 1.967v-6c0-.366.3-.666.667-.666.366 0 .666.3.666.667v7.132a.645.645 0 01-.333.566c-.067.067-.167.1-.3.1zM33.478 22.662a.657.657 0 01-.467-.2l-1.232-1.233a.644.644 0 010-.933.644.644 0 01.933 0l.766.766 2.432-2.433a.644.644 0 01.932 0 .644.644 0 010 .934l-2.931 2.932c-.1.1-.267.167-.433.167z" fill="#380D75"/><path d="M34.31 29.227c-.866 0-1.532-.566-2.098-1.066-.3-.267-.6-.533-.866-.633-.3-.134-.7-.167-1.133-.2-.766-.067-1.599-.134-2.198-.7-.6-.6-.666-1.433-.7-2.2-.033-.433-.066-.833-.2-1.133-.1-.266-.366-.566-.632-.866-.5-.567-1.067-1.233-1.067-2.1 0-.866.567-1.533 1.067-2.1.266-.3.532-.6.632-.866.134-.3.167-.7.2-1.133.067-.767.133-1.6.7-2.2.6-.6 1.432-.666 2.198-.7.433-.033.833-.066 1.133-.2.266-.1.566-.366.866-.633.566-.5 1.232-1.066 2.099-1.066.866 0 1.532.567 2.098 1.066.3.267.6.534.866.634.3.133.7.166 1.133.2.766.066 1.599.133 2.198.7.6.6.667 1.432.7 2.199.033.433.067.833.2 1.133.1.267.366.567.633.867.5.566 1.066 1.233 1.066 2.1 0 .866-.566 1.532-1.066 2.099-.267.3-.533.6-.633.866-.133.3-.167.7-.2 1.133-.067.767-.133 1.6-.7 2.2-.566.6-1.432.666-2.198.7-.433.033-.833.066-1.133.2-.266.1-.566.366-.866.633-.566.5-1.199 1.066-2.098 1.066zm0-16.53c-.366 0-.799.367-1.232.734-.366.333-.766.666-1.232.866-.5.2-1.033.233-1.533.267-.533.033-1.099.1-1.365.333-.234.233-.3.8-.334 1.366-.033.534-.066 1.067-.266 1.533-.2.467-.533.867-.866 1.233-.4.434-.733.867-.733 1.233 0 .367.366.8.733 1.233.333.367.666.767.866 1.234.2.5.233 1.033.266 1.533.034.533.1 1.1.334 1.366.233.233.799.3 1.365.333.533.034 1.066.067 1.533.267.466.2.866.533 1.232.866.433.4.866.734 1.233.734.366 0 .8-.367 1.232-.734.367-.333.766-.666 1.233-.866.5-.2 1.032-.233 1.532-.267.533-.033 1.1-.1 1.366-.333.233-.233.3-.8.333-1.366.033-.534.067-1.067.266-1.533.2-.467.533-.867.866-1.233.4-.434.733-.867.733-1.233 0-.367-.366-.8-.733-1.234-.333-.366-.666-.766-.866-1.233-.2-.5-.233-1.033-.266-1.533-.033-.533-.1-1.1-.333-1.366-.233-.233-.8-.3-1.366-.333-.533-.034-1.066-.067-1.532-.267-.467-.2-.866-.533-1.233-.866-.433-.367-.833-.734-1.232-.734z" fill="#380D75"/><g opacity=".4"><g opacity=".4"><path opacity=".4" d="M211.127 101.612a.668.668 0 01-.666-.666V96.88c0-.367.299-.667.666-.667.366 0 .666.3.666.667v4.066c0 .366-.3.666-.666.666z" fill="#AFAAE5"/><path opacity=".4" d="M213.159 99.58h-4.064a.668.668 0 01-.666-.667c0-.367.3-.667.666-.667h4.064c.366 0 .666.3.666.667 0 .366-.3.666-.666.666z" fill="#AFAAE5"/></g><g opacity=".4"><path opacity=".4" d="M198.369 35.526a.669.669 0 01-.667-.667v-4.065c0-.367.3-.667.667-.667.366 0 .666.3.666.667v4.065c0 .367-.3.667-.666.667z" fill="#AFAAE5"/><path opacity=".4" d="M200.401 33.493h-4.064a.669.669 0 01-.667-.666c0-.367.3-.667.667-.667h4.064c.366 0 .666.3.666.667 0 .366-.3.666-.666.666z" fill="#AFAAE5"/></g><g opacity=".4"><path opacity=".4" d="M91.006 11.964a.668.668 0 01-.666-.666V7.232c0-.367.3-.667.666-.667.367 0 .666.3.666.667v4.066c0 .366-.3.666-.666.666z" fill="#AFAAE5"/><path opacity=".4" d="M93.038 9.931h-4.064a.668.668 0 01-.666-.666c0-.367.3-.667.666-.667h4.064c.367 0 .666.3.666.667 0 .366-.3.666-.666.666z" fill="#AFAAE5"/></g><g opacity=".4"><path opacity=".4" d="M245.238 137.771a.668.668 0 01-.666-.666v-4.066c0-.367.299-.667.666-.667.366 0 .666.3.666.667v4.066c0 .366-.3.666-.666.666z" fill="#AFAAE5"/><path opacity=".4" d="M247.27 135.738h-4.064a.668.668 0 010-1.333h4.064c.366 0 .666.3.666.667a.647.647 0 01-.666.666z" fill="#AFAAE5"/></g><path opacity=".4" d="M162.059 19.096a1.849 1.849 0 01-1.832-1.833c0-1 .833-1.833 1.832-1.833 1 0 1.833.833 1.833 1.833-.034 1-.833 1.833-1.833 1.833zm0-2.333a.512.512 0 00-.499.5c0 .267.233.5.499.5.267 0 .5-.233.5-.5s-.233-.5-.5-.5zM248.802 84.549a1.849 1.849 0 01-1.832-1.833c0-1 .833-1.833 1.832-1.833.999 0 1.832.833 1.832 1.833s-.833 1.833-1.832 1.833zm0-2.3c-.266 0-.5.234-.5.5 0 .267.234.5.5.5.267 0 .5-.233.5-.5 0-.266-.233-.5-.5-.5zM129.481 39.392a.655.655 0 01-.466-.2.655.655 0 01-.2-.467v-.133c0-.033.033-.067.033-.133.033-.034.033-.067.067-.1.033-.034.066-.067.066-.1.267-.234.7-.267.933 0 .033.033.067.066.067.1.033.033.033.066.066.1.034.033.034.066.034.133v.133a.66.66 0 01-.2.467c-.067.133-.234.2-.4.2zM205.264 71.185a.657.657 0 01-.466-.2c-.033-.033-.067-.067-.067-.1-.033-.033-.033-.067-.066-.1-.034-.033-.034-.066-.034-.133v-.133c0-.167.067-.367.2-.467.267-.233.7-.233.933 0 .133.133.2.3.2.467v.133c0 .033-.033.067-.033.133-.034.034-.034.067-.067.1s-.067.067-.067.1c-.2.133-.366.2-.533.2zM233.479 22.662h-.134c-.033 0-.066-.033-.133-.033-.033-.034-.066-.034-.1-.067l-.1-.1a.66.66 0 01-.2-.466.66.66 0 01.2-.467c.034-.033.067-.067.1-.067.034-.033.067-.033.1-.066.034 0 .067-.034.133-.034a.756.756 0 01.6.167c.133.133.2.3.2.466a.66.66 0 01-.2.467c-.133.133-.3.2-.466.2zM232.08 152.502h-.133c-.034 0-.1-.034-.134-.034-.033 0-.066-.033-.1-.066-.033-.034-.066-.067-.1-.067a.658.658 0 01-.199-.467v-.133c0-.033.033-.1.033-.133 0-.034.033-.067.067-.1.033-.034.066-.067.066-.1.033-.034.067-.067.1-.067.033-.033.067-.033.1-.067.033 0 .067-.033.133-.033a.37.37 0 01.267 0c.033 0 .066.033.133.033s.067.034.133.067c.034.033.067.067.1.067.033.033.067.066.067.1.033.033.033.066.066.1.034.033.034.066.034.133v.133a.66.66 0 01-.2.467c-.033.033-.067.067-.1.067-.033.033-.067.033-.133.066-.034.034-.067.034-.134.034h-.066z" fill="#AFAAE5"/><g opacity=".4"><path opacity=".4" d="M45.037 104.512a.668.668 0 01-.666-.667v-4.066c0-.366.3-.666.666-.666.366 0 .666.3.666.666v4.066c0 .367-.3.667-.666.667z" fill="#AFAAE5"/><path opacity=".4" d="M47.069 102.479h-4.064a.668.668 0 01-.666-.667c0-.366.3-.666.666-.666h4.064c.366 0 .666.3.666.666 0 .367-.3.667-.666.667z" fill="#AFAAE5"/></g><g opacity=".4"><path opacity=".4" d="M47.369 35.526a.668.668 0 01-.667-.667v-4.065c0-.367.3-.667.667-.667.366 0 .666.3.666.667v4.065c0 .367-.3.667-.666.667z" fill="#AFAAE5"/><path opacity=".4" d="M49.4 33.493h-4.063a.668.668 0 01-.667-.666c0-.367.3-.667.667-.667H49.4c.366 0 .666.3.666.667 0 .366-.3.666-.666.666z" fill="#AFAAE5"/></g><g opacity=".4"><path opacity=".4" d="M5.896 135.738a.668.668 0 01-.667-.666v-4.066a.668.668 0 011.332 0v4.066c0 .366-.299.666-.665.666z" fill="#AFAAE5"/><path opacity=".4" d="M7.928 133.706H3.864a.668.668 0 01-.666-.667c0-.367.3-.667.666-.667h4.064c.366 0 .666.3.666.667 0 .367-.3.667-.666.667z" fill="#AFAAE5"/></g><path opacity=".4" d="M16.656 46.457c-1 0-1.832-.833-1.832-1.833s.832-1.833 1.832-1.833c.999 0 1.832.833 1.832 1.833s-.833 1.833-1.832 1.833zm0-2.333c-.267 0-.5.233-.5.5s.233.5.5.5c.266 0 .5-.233.5-.5s-.234-.5-.5-.5zM40.307 76.45a.658.658 0 01-.467-.2.658.658 0 01-.2-.466c0-.166.067-.333.2-.466.267-.267.7-.267.933 0 .033.033.067.066.067.1.033.033.033.066.066.1 0 .033.034.066.034.133v.133a.658.658 0 01-.2.467c-.1.133-.267.2-.433.2zM12.825 25.095a.657.657 0 01-.466-.2c-.034-.034-.067-.067-.067-.1-.034-.034-.034-.067-.067-.1-.033-.034-.033-.067-.033-.134v-.133-.133c0-.033.033-.067.033-.133 0-.067.034-.067.067-.1.033-.034.066-.067.066-.1.034-.034.067-.067.1-.067.034-.033.067-.033.1-.067.034-.033.067-.033.134-.033h.266c.033 0 .067.033.133.033.034 0 .067.034.134.067.033.033.066.067.1.067.033.033.066.066.066.1.033.033.033.066.067.1.033.033.033.066.033.133v.266c0 .034-.033.1-.033.134-.034.033-.034.067-.067.1s-.066.066-.066.1c-.167.1-.334.2-.5.2zM20.72 149.735a.658.658 0 01-.467-.199.66.66 0 01-.2-.467v-.133c0-.034.034-.067.034-.134 0-.033.033-.066.066-.1.034-.033.034-.066.067-.1.033-.033.066-.066.1-.066.033-.034.066-.034.1-.067.033-.033.066-.033.133-.033.2-.034.433.033.6.166.033.034.066.067.066.1.033.034.033.067.067.1 0 .034.033.067.033.134v.133a.66.66 0 01-.2.467.55.55 0 01-.233.133c0 .066-.067.066-.166.066z" fill="#AFAAE5"/></g></svg>